<?xml version="1.0" encoding="UTF-8" standalone="no"?>
<!-- Created with Inkscape (http://www.inkscape.org/) -->

<svg
   width="350mm"
   height="350mm"
   viewBox="0 0 350 350"
   version="1.1"
   id="svg842"
   inkscape:version="1.2.1 (9c6d41e410, 2022-07-14)"
   sodipodi:docname="image.svg"
   xmlns:inkscape="http://www.inkscape.org/namespaces/inkscape"
   xmlns:sodipodi="http://sodipodi.sourceforge.net/DTD/sodipodi-0.dtd"
   xmlns="http://www.w3.org/2000/svg"
   xmlns:svg="http://www.w3.org/2000/svg">
  <sodipodi:namedview
     id="namedview844"
     pagecolor="#ffffff"
     bordercolor="#000000"
     borderopacity="0.25"
     inkscape:showpageshadow="2"
     inkscape:pageopacity="0.0"
     inkscape:pagecheckerboard="0"
     inkscape:deskcolor="#d1d1d1"
     inkscape:document-units="mm"
     showgrid="false"
     inkscape:zoom="0.18641099"
     inkscape:cx="1400.132"
     inkscape:cy="949.51483"
     inkscape:window-width="2560"
     inkscape:window-height="1377"
     inkscape:window-x="-8"
     inkscape:window-y="-8"
     inkscape:window-maximized="1"
     inkscape:current-layer="layer4" />
  <defs
     id="defs839" />
  <g
     inkscape:label="圖層 1"
     inkscape:groupmode="layer"
     id="layer1"
     style="display:none;opacity:0.33"
     sodipodi:insensitive="true">
    <path
       style="fill:#4d4d4d;stroke-width:0;paint-order:markers fill stroke"
       id="path1199"
       d="m 51.137579,124.67163 c 1.963274,4.11615 3.738096,8.31879 5.465296,12.53839 2.178204,4.89304 3.16525,10.17781 4.268931,15.38644 1.262152,6.16592 1.893644,12.43074 2.336498,18.70108 0.25559,4.26128 0.681003,8.4973 1.602714,12.66764 2.034584,7.21248 6.255673,13.53009 10.497139,19.61432 4.497888,5.77004 9.597184,11.04705 14.912618,16.06301 2.161781,2.05007 4.433125,3.98935 6.95148,5.58875 2.237282,1.42089 4.157425,2.3962 6.648645,3.77834 2.94536,1.47017 5.955,2.8053 8.92796,4.21699 2.65085,1.1061 5.2754,2.27007 7.93676,3.3505 3.1622,1.12238 6.37018,2.11615 9.58222,3.08738 2.53467,0.74019 5.11149,1.29474 7.71032,1.75049 0,0 -3.07681,-2.31884 -3.07681,-2.31884 v 0 c -2.59047,-0.46262 -5.1546,-1.04458 -7.68097,-1.78572 -3.21432,-0.97507 -6.43422,-1.95195 -9.57999,-3.13095 -2.64957,-1.0814 -5.27202,-2.22834 -7.90378,-3.35158 -2.96656,-1.39723 -5.95988,-2.73897 -8.89313,-4.20622 0.50745,0.32658 2.12571,0.99116 1.52236,0.97972 -0.63488,-0.012 -1.09261,-0.64749 -1.63247,-0.98181 -2.561956,-1.58651 -4.887664,-3.50167 -7.078806,-5.56773 -5.354733,-4.98536 -10.471795,-10.25519 -14.9943,-16.01557 -4.253553,-5.99831 -8.470093,-12.25 -10.433534,-19.42275 -0.910129,-4.16666 -1.352894,-8.39521 -1.677852,-12.64536 -0.501391,-6.27394 -1.10435,-12.55593 -2.303257,-18.74075 -1.113742,-5.21989 -2.052687,-10.53328 -4.229846,-15.44217 -1.708581,-4.18038 -3.486494,-8.33178 -5.291425,-12.47117 0,0 -3.586771,-1.64243 -3.586771,-1.64243 z" />
    <path
       style="fill:#4d4d4d;stroke-width:0;paint-order:markers fill stroke"
       id="path1201"
       d="m 149.13746,246.46713 c 4.55986,-0.19044 9.11743,-0.36833 13.61676,-1.20453 1.21818,-0.2264 2.42202,-0.52412 3.63303,-0.78618 6.68291,-1.49524 13.11999,-3.83738 19.35898,-6.62971 4.39831,-2.1755 8.79768,-4.34565 13.1826,-6.548 4.55188,-2.07411 9.16123,-4.01591 13.70888,-6.09934 5.60079,-2.86551 10.88072,-6.26779 16.0061,-9.90137 3.4978,-2.46952 6.28812,-5.67891 8.92272,-9.0125 2.17256,-2.87579 4.29045,-5.79363 6.10133,-8.91228 1.07938,-1.86739 2.17119,-3.73084 3.4419,-5.47528 0,0 -3.35305,-1.98017 -3.35305,-1.98017 v 0 c -1.25091,1.77196 -2.36696,3.63699 -3.43643,5.52316 -1.77879,3.11287 -3.85007,6.04007 -6.00634,8.90239 -2.62088,3.29197 -5.42708,6.44322 -8.84876,8.93453 -5.07027,3.67232 -10.30211,7.12094 -15.95435,9.84769 -4.56632,2.06353 -9.18086,4.01708 -13.74066,6.09534 -4.37808,2.18995 -8.7532,4.38351 -13.13792,6.55966 -6.18125,2.82943 -12.59674,5.13925 -19.24497,6.61025 -1.2151,0.25022 -2.42365,0.5346 -3.64528,0.75068 -4.55346,0.80542 -9.16528,0.95568 -13.77703,1.04907 0,0 3.17249,2.27659 3.17249,2.27659 z" />
    <path
       style="fill:#4d4d4d;stroke-width:0;paint-order:markers fill stroke"
       id="path1203"
       d="m 45.458835,197.2766 c 1.311015,-8.88767 3.934078,-17.5322 6.340861,-26.16943 3.594587,-12.35795 6.812975,-24.81875 10.676204,-37.09692 1.735648,-5.08799 3.4499,-10.19143 5.453573,-15.1826 1.771862,-4.41373 3.742709,-8.75826 5.675109,-13.10298 3.216717,-7.566035 7.287286,-14.700123 11.556301,-21.708797 0.510453,-0.788255 1.020906,-1.576512 1.531361,-2.364769 0,0 -3.228274,-1.882971 -3.228274,-1.882971 v 0 c -0.501393,0.797615 -1.002786,1.595228 -1.50418,2.392844 -4.166473,7.083419 -8.266062,14.227352 -11.441522,21.824433 -1.943788,4.34915 -3.938712,8.68843 -5.67881,13.12497 -1.968048,5.01772 -3.658352,10.14131 -5.374257,15.24836 -1.454353,4.62064 -2.236258,6.9802 -3.547544,11.64526 -2.386515,8.49032 -4.47299,17.0664 -7.057355,25.50196 -2.468137,8.60225 -5.1693,17.17192 -6.882802,25.96543 0,0 3.481335,1.80521 3.481335,1.80521 z" />
    <path
       style="fill:#4d4d4d;stroke-width:0;paint-order:markers fill stroke"
       id="path1205"
       d="m 89.795373,45.108063 c 0.119044,0.996977 0.192458,2.000467 0.357132,2.990929 0.298151,1.793293 0.667551,3.574175 1.030538,5.355477 1.721956,8.450183 3.856533,16.709601 6.70464,24.861189 1.26551,3.622021 2.697767,7.183606 4.046657,10.77541 7.76878,18.513542 16.763,36.515702 26.87626,53.860692 1.60592,2.75427 3.28802,5.46341 4.93203,8.19511 6.37411,10.29828 13.23028,20.29005 20.17883,30.20685 0.45141,0.60908 0.90283,1.21816 1.35424,1.82724 0,0 3.47697,1.49627 3.47697,1.49627 v 0 c -0.4774,-0.61637 -0.95479,-1.23273 -1.43219,-1.84909 -7.20826,-9.9333 -14.24965,-20.00048 -20.73636,-30.42303 -1.66236,-2.73701 -3.35822,-5.45395 -4.98707,-8.21103 -10.22408,-17.30593 -19.41459,-35.24306 -27.00354,-53.865231 -1.31311,-3.569499 -2.71223,-7.108526 -3.93933,-10.708499 -3.3009,-9.68393 -5.799617,-19.716869 -7.167677,-29.865913 -0.131471,-0.975344 -0.173381,-1.960681 -0.260075,-2.941021 0,0 -3.431055,-1.705353 -3.431055,-1.705353 z" />
    <path
       style="fill:#4d4d4d;stroke-width:0;paint-order:markers fill stroke"
       id="path1217"
       d="m 64.083633,148.56352 c 1.247526,-3.04903 3.484068,-5.62073 5.590847,-8.1133 1.719683,-1.87902 3.368564,-3.86706 5.429083,-5.39226 0.976326,-0.72267 1.671135,-1.08271 2.713228,-1.68059 2.274798,-1.33504 4.798909,-1.88214 7.364402,-2.31504 2.213173,-0.29439 4.450059,-0.55398 6.669103,-0.21742 0.742413,0.21429 0.879454,0.21486 1.558303,0.55823 0.225685,0.11415 0.876996,0.50418 0.655564,0.38198 -4.903801,-2.70622 -2.775813,-1.66239 -1.627378,-0.59223 0.923038,0.92209 1.559073,2.05528 2.217862,3.16686 0,0 3.574843,1.58565 3.574843,1.58565 v 0 c -0.67033,-1.118 -1.272296,-2.28256 -2.161212,-3.2515 -1.96098,-2.03979 -4.617511,-3.50483 -7.352228,-4.18861 -2.242423,-0.24348 -4.491638,0.003 -6.716072,0.32825 -2.595944,0.46301 -5.130149,1.06122 -7.417602,2.44525 -1.091721,0.64612 -1.702744,0.9678 -2.728748,1.74405 -2.061401,1.55961 -3.701304,3.57329 -5.434859,5.4699 -2.144853,2.5453 -4.40635,5.13338 -5.811507,8.17583 0,0 3.476371,1.89495 3.476371,1.89495 z" />
    <path
       style="fill:#4d4d4d;stroke-width:0;paint-order:markers fill stroke"
       id="path1219"
       d="m 181.81354,135.96809 c 1.69185,-2.22774 3.91596,-3.95244 6.33617,-5.31546 3.06898,-1.63328 6.38632,-2.53867 9.79558,-3.09796 3.77925,-0.50571 7.60198,-0.48829 11.40724,-0.50983 3.38019,0.0202 6.79054,0.0404 10.12672,0.63554 3.06925,0.90129 5.91207,2.37167 8.69358,3.92228 -0.59748,-0.33011 -1.12897,-0.82989 -1.79246,-0.99032 -0.52651,-0.12731 0.91263,0.58394 1.36211,0.88626 1.47832,0.99429 2.85544,2.07295 4.16358,3.28067 1.90126,2.09281 3.41175,4.51553 4.81014,6.96416 1.07517,1.98383 1.85849,4.13645 2.42691,6.31848 0.32016,1.49515 0.41205,3.02354 0.46961,4.54723 0,0 3.50772,1.76974 3.50772,1.76974 v 0 c -0.0647,-1.54955 -0.16872,-3.10067 -0.45214,-4.62815 -0.53128,-2.22009 -1.37631,-4.38974 -2.40327,-6.42405 -1.39508,-2.47513 -2.94209,-4.89424 -4.76887,-7.07332 -3.03225,-2.902 -6.65111,-5.0391 -10.31147,-7.06168 -2.81075,-1.54711 -5.68919,-3.02145 -8.80818,-3.84495 -3.33248,-0.51843 -6.72381,-0.52653 -10.08949,-0.52653 -3.83166,0.0207 -7.68422,-0.0382 -11.48468,0.53052 -3.43744,0.59942 -6.78749,1.53761 -9.8772,3.20482 -2.45426,1.40845 -4.69149,3.16137 -6.47678,5.37747 0,0 3.36518,2.03508 3.36518,2.03508 z" />
    <path
       style="fill:#4d4d4d;stroke-width:0;paint-order:markers fill stroke"
       id="path1221"
       d="m 87.975521,186.54826 c -1.264079,-4.19481 -1.641875,-8.58357 -2.017869,-12.92809 -0.36921,-4.75967 -0.430424,-9.5347 -0.461295,-14.30615 -0.02495,-2.62192 -0.106699,-5.25209 0.386503,-7.8424 0.278987,-1.46525 0.553011,-2.19414 0.996614,-3.59913 0.858115,-2.31482 1.937761,-4.52489 3.639023,-6.3307 0.872107,-0.82825 0.413176,-0.44643 1.375238,-1.14732 0,0 -3.308164,-2.09407 -3.308164,-2.09407 v 0 c -0.989568,0.7517 -0.518324,0.34875 -1.413862,1.2087 -1.706182,1.88279 -2.784898,4.14328 -3.650271,6.52161 -0.445402,1.42595 -0.720514,2.17565 -1.012307,3.65955 -0.51277,2.60767 -0.443925,5.25239 -0.412289,7.89525 0.05034,4.79135 0.161536,9.58494 0.51299,14.36498 0.371197,4.319 0.724098,8.67732 1.799833,12.88958 0,0 3.565856,1.70819 3.565856,1.70819 z" />
    <path
       style="fill:#4d4d4d;stroke-width:0;paint-order:markers fill stroke"
       id="path1223"
       d="m 96.710107,134.84578 c 0.788271,5.15623 1.18623,10.35705 1.505506,15.56048 0.329247,5.94715 0.4338,11.90327 0.467257,17.85842 0.004,3.37564 -0.01632,6.75122 -0.04545,10.12671 -0.06614,1.69324 0.128582,3.40676 -0.210315,5.07646 -0.514257,1.45402 -2.155634,1.80742 -3.431725,2.35455 -1.171286,0.47119 -2.401604,0.72954 -3.639751,0.94555 0,0 3.20938,2.24364 3.20938,2.24364 v 0 c 1.255226,-0.24304 2.500887,-0.53039 3.689451,-1.01457 1.414015,-0.5865 3.09761,-1.0742 3.64086,-2.67163 0.36062,-1.70093 0.17821,-3.43852 0.2095,-5.16651 -0.0174,-3.39733 -0.0306,-6.79475 -0.0739,-10.19187 -0.0682,-5.97571 -0.1668,-11.9524 -0.54345,-17.91839 -0.30559,-5.16765 -0.63916,-10.3338 -1.24493,-15.47585 0,0 -3.532435,-1.72699 -3.532435,-1.72699 z" />
    <path
       style="fill:#4d4d4d;stroke-width:0;paint-order:markers fill stroke"
       id="path1225"
       d="m 207.2931,189.91373 c -1.71817,-4.80866 -2.41049,-9.88358 -3.00404,-14.9292 -0.49436,-5.65598 -0.9667,-11.34712 -0.74291,-17.0281 0.13159,-1.9689 0.21922,-3.96442 0.77194,-5.87368 0.62431,-2.15656 1.62871,-4.14247 2.66431,-6.12063 1.56617,-2.70849 3.44026,-5.21885 5.69973,-7.38287 2.16456,-1.67063 4.80912,-2.49971 7.40438,-3.24739 0.38839,-0.0849 0.77678,-0.16972 1.16517,-0.25458 0,0 -3.19587,-2.21461 -3.19587,-2.21461 v 0 c -0.39219,0.0924 -0.78438,0.18488 -1.17657,0.27732 -2.6361,0.80328 -5.3176,1.66236 -7.50086,3.40625 -2.27477,2.20432 -4.12918,4.77748 -5.68637,7.53424 -1.04529,1.99628 -2.0882,4.02481 -2.74072,6.19391 -0.58017,1.92857 -0.64092,3.95274 -0.78402,5.94418 -0.21044,5.71792 0.37252,11.44479 0.83488,17.13821 0.56149,5.02499 1.20688,10.05697 2.71507,14.90316 0,0 3.57588,1.65379 3.57588,1.65379 z" />
    <path
       style="fill:#4d4d4d;stroke-width:0;paint-order:markers fill stroke"
       id="path1227"
       d="m 231.59062,141.78068 c 0.59841,6.48004 1.68047,12.90522 2.6827,19.33216 1.10465,7.27132 1.84173,14.59101 2.23474,21.93377 0.0435,2.62307 -0.13399,4.9297 -1.94076,6.92879 -1.01118,1.01892 -2.30386,1.57404 -3.64948,1.99859 -2.71658,0.88243 -5.50437,1.39849 -8.33444,1.73763 -3.31848,0.32668 -6.65685,0.35235 -9.98841,0.36936 -2.19281,-0.002 -3.94101,-0.4965 -5.80333,-1.60788 0.89642,0.51679 1.79283,1.03358 2.68925,1.55037 0,0 -3.66695,-1.40812 -3.66695,-1.40812 v 0 c 1.34236,0.77498 2.68472,1.54996 4.02708,2.32494 1.82483,0.99862 3.79307,1.46409 5.88441,1.41091 3.33476,-0.0417 6.67732,-0.08 9.9979,-0.41636 2.86143,-0.35949 5.68234,-0.90338 8.44213,-1.75436 1.40075,-0.47176 2.73093,-1.07777 3.76014,-2.17693 1.88953,-2.21055 2.02798,-4.41725 1.95251,-7.2656 -0.50495,-7.38173 -1.33238,-14.73396 -2.40324,-22.05532 -0.97584,-6.34482 -1.98461,-12.70014 -2.37502,-19.11391 0,0 -3.50923,-1.78804 -3.50923,-1.78804 z" />
    <path
       style="fill:#4d4d4d;stroke-width:0;paint-order:markers fill stroke"
       id="path1229"
       d="m 161.34012,185.58835 c 0.15528,-3.8828 0.78673,-7.73744 1.46157,-11.55894 1.39205,-6.03507 2.43152,-12.15438 4.01041,-18.14644 0.4042,-1.534 0.87054,-3.05096 1.30581,-4.57644 2.37194,-8.33566 5.00513,-16.5918 7.60923,-24.85672 1.5634,-5.23393 3.27681,-10.42056 4.39158,-15.7725 1.17042,-6.05296 1.77558,-12.180773 2.21366,-18.323258 0.37459,-6.322819 0.44709,-12.658312 0.50334,-18.990389 0.0109,-4.691639 0.0784,-9.384556 -0.0403,-14.075148 -0.15128,-3.922387 -0.90165,-7.788309 -1.78394,-11.602881 -0.62918,-2.434093 -1.4207,-4.819594 -2.21259,-7.204014 0,0 -3.48179,-1.633374 -3.48179,-1.633374 v 0 c 0.81588,2.371815 1.62301,4.746633 2.24544,7.17872 0.8974,3.795909 1.65797,7.645279 1.85006,11.549843 0.14441,4.692968 0.0447,9.390007 0.0868,14.084673 -0.0123,6.334519 -0.0545,12.672867 -0.43577,18.998036 -0.42534,6.117378 -1.08012,12.211932 -2.27836,18.232472 -1.10702,5.34929 -2.73531,10.5576 -4.27285,15.79593 -2.54158,8.29446 -5.10445,16.58286 -7.51701,24.91603 -0.44146,1.52729 -0.90943,3.04716 -1.32438,4.58186 -1.61508,5.97344 -2.75093,12.0632 -4.18274,18.08007 -0.70532,3.81728 -1.33019,7.65792 -1.6724,11.52682 0,0 3.52417,1.79565 3.52417,1.79565 z" />
    <path
       style="fill:#4d4d4d;stroke-width:0;paint-order:markers fill stroke"
       id="path1231"
       d="m 180.69746,74.454035 c 1.06321,3.248086 2.84821,6.163244 4.62764,9.055086 1.69121,2.748463 3.62976,5.759252 5.50429,8.390771 0.96595,1.356032 1.99043,2.669403 2.98564,4.004104 6.79713,8.679864 15.00102,16.111264 23.36317,23.242474 3.00227,2.62062 6.18129,5.02298 9.39591,7.3734 0,0 3.50452,1.38769 3.50452,1.38769 v 0 c -3.27185,-2.36581 -6.51106,-4.78096 -9.57437,-7.41548 -8.4162,-7.08101 -16.6565,-14.48412 -23.44262,-23.188383 -0.99637,-1.329639 -2.02142,-2.638263 -2.98911,-3.988919 -1.97128,-2.751415 -3.72694,-5.463873 -5.48442,-8.3566 -1.71138,-2.816847 -2.4785,-4.049265 -3.6885,-6.915877 -0.26359,-0.62447 -0.45143,-1.278271 -0.67715,-1.917407 0,0 -3.525,-1.670859 -3.525,-1.670859 z" />
    <path
       style="fill:#4d4d4d;stroke-width:0;paint-order:markers fill stroke"
       id="path1233"
       d="m 230.93959,130.13801 c 6.35848,6.41603 12.14222,13.35839 17.78551,20.40171 2.43362,3.1146 4.78971,6.28746 7.11986,9.47963 0,0 3.38888,1.46393 3.38888,1.46393 v 0 c -2.38786,-3.21504 -4.80264,-6.40952 -7.27309,-9.56188 -5.58293,-6.93647 -11.29377,-13.76718 -17.37677,-20.27384 0,0 -3.64439,-1.50955 -3.64439,-1.50955 z" />
    <path
       style="fill:#4d4d4d;stroke-width:0;paint-order:markers fill stroke"
       id="path1235"
       d="m 263.71342,167.08239 c -0.13387,-4.727 -0.84918,-9.41538 -1.30144,-14.1194 -0.67592,-6.69915 -1.55247,-13.37518 -2.5547,-20.03282 -1.17562,-7.12262 -3.0327,-14.10936 -5.03723,-21.03713 -0.3013,-0.9913 -0.61145,-1.97996 -0.90388,-2.97392 -0.39681,-1.34873 -1.36714,-4.86378 -1.76817,-6.17341 -1.16653,-3.809446 -2.53669,-7.517473 -3.99203,-11.224077 -3.00003,-7.256867 -6.45055,-14.314971 -10.02975,-21.30031 -1.47667,-2.885924 -2.95891,-5.768591 -4.46344,-8.640069 0,0 -3.39332,-1.526529 -3.39332,-1.526529 v 0 c 1.52503,2.877552 3.03845,5.761111 4.52078,8.660979 3.57246,6.996552 7.10466,14.022951 10.09872,21.291788 1.43225,3.684675 2.7799,7.366844 3.92187,11.153548 0.61404,2.03612 1.14818,4.13276 1.75085,6.17266 0.29426,0.99599 0.61287,1.98463 0.91931,2.97695 2.0735,6.8983 3.89864,13.87522 5.05926,20.9917 1.01176,6.64847 1.91186,13.31411 2.55456,20.0094 0.42603,4.64803 1.15071,9.29817 1.08946,13.97245 0,0 3.52915,1.79819 3.52915,1.79819 z" />
    <path
       style="fill:#4d4d4d;stroke-width:0;paint-order:markers fill stroke"
       id="path1237"
       d="m 239.61472,151.19262 c 0.009,0.41348 0.0435,0.82712 0.0284,1.24043 -0.13589,3.73972 -0.75366,7.46505 -1.30013,11.1596 -0.79745,5.39144 -0.98359,6.37335 -1.89748,11.92572 -1.9448,11.18766 -4.20044,22.33973 -7.11614,33.31918 -0.64068,2.41255 -1.34259,4.80842 -2.01388,7.21263 -3.20803,11.0411 -7.15799,21.85478 -11.95023,32.30429 -1.74238,3.95669 -3.93256,7.68317 -6.69777,11.00556 -0.23824,0.26427 -0.47648,0.52855 -0.71472,0.79282 0,0 3.33785,2.01722 3.33785,2.01722 v 0 c 0.2356,-0.27197 0.47121,-0.54393 0.70682,-0.81589 2.71278,-3.40495 4.84467,-7.20084 6.54353,-11.20918 4.62826,-10.55823 8.39159,-21.46698 11.67499,-32.51467 0.68875,-2.39843 1.41431,-4.78659 2.06623,-7.19528 2.96953,-10.97189 5.12875,-22.1457 7.1715,-33.31967 0.96186,-5.50024 1.92357,-10.99969 2.78262,-16.51716 0.30104,-1.93358 0.69461,-4.39321 0.86913,-6.40103 0.035,-0.40241 0.0189,-0.80763 0.0284,-1.21145 0,0 -3.51919,-1.79312 -3.51919,-1.79312 z" />
    <path
       style="fill:#4d4d4d;stroke-width:0;paint-order:markers fill stroke"
       id="path1239"
       d="m 209.0401,279.87069 c 5.65091,-2.56627 10.64284,-6.34346 15.5585,-10.07893 1.05086,-0.81558 2.12994,-1.59599 3.15257,-2.44668 2.23857,-1.86222 4.16059,-3.75867 6.27018,-5.76402 3.05633,-2.90529 6.10937,-5.80201 9.09223,-8.78286 4.19866,-4.57587 8.14481,-9.46325 11.14423,-14.92571 0.52791,-0.9614 0.98561,-1.95973 1.47841,-2.9396 2.5222,-6.07955 4.21821,-12.46763 5.74392,-18.85883 0.64327,-2.45677 1.04862,-4.96327 1.4528,-7.46703 0,0 -3.34184,-1.7685 -3.34184,-1.7685 v 0 c -0.37808,2.50415 -0.77402,5.00699 -1.39416,7.46578 -1.48309,6.37588 -3.1148,12.75719 -5.67123,18.79978 -0.48804,0.97271 -0.94366,1.96239 -1.46414,2.91814 -2.9653,5.44516 -6.83052,10.35166 -11.03692,14.88357 -2.97063,2.98659 -6.00715,5.89125 -9.06655,8.78679 -2.32466,2.20014 -3.82078,3.67869 -6.27757,5.71833 -1.02049,0.8472 -2.08865,1.63528 -3.13298,2.4529 -4.93694,3.72073 -9.9784,7.51033 -15.76929,9.8066 0,0 3.26184,2.20027 3.26184,2.20027 z" />
    <path
       style="fill:#4d4d4d;stroke-width:0;paint-order:markers fill stroke"
       id="path1249"
       d="m 33.417131,220.19773 c -2.620621,-4.9301 -4.563644,-10.17862 -6.412746,-15.43515 -2.152232,-5.51871 -3.451867,-11.29055 -4.595879,-17.08578 -1.228232,-7.36573 -1.478199,-14.84262 -1.649385,-22.29326 -0.105986,-6.69461 -0.07889,-13.39048 -0.05995,-20.08565 0.0017,-1.03679 0.0059,-2.07357 0.0051,-3.11036 -0.0024,-3.45732 -0.05707,-3.58814 0.103906,-7.09747 0.167522,-3.65197 0.529479,-7.28854 0.859345,-10.92815 0.479323,-6.52601 1.942015,-12.90352 3.710869,-19.18403 1.844406,-6.93078 4.339593,-13.660714 7.060703,-20.288458 3.000497,-6.637678 5.899968,-13.330091 9.158991,-19.84676 3.143245,-6.471087 7.366394,-12.273016 11.716375,-17.965817 4.261389,-5.445813 8.748969,-10.708701 13.817102,-15.419432 4.602416,-4.151744 9.858198,-7.459981 15.140845,-10.659953 5.746906,-3.397374 11.667701,-6.460455 17.782593,-9.134256 6.12216,-2.6531312 12.62292,-4.1132724 19.18495,-5.1502858 4.87423,-0.7226269 9.80191,-0.8551635 14.71998,-0.9153311 3.789,-0.024416 7.57793,0.018211 11.36686,0.035807 2.91084,-0.1752886 5.72583,0.2939502 8.53348,1.0113798 2.42654,0.7673776 4.79009,1.7199435 7.15434,2.658822 0.94866,0.4138009 1.89945,0.8175911 2.83607,1.2579261 0,0 -3.06346,-2.4347108 -3.06346,-2.4347108 v 0 c -0.93732,-0.424071 -1.88227,-0.8291877 -2.83102,-1.2271719 -2.35658,-0.9377256 -4.72009,-1.8774269 -7.15503,-2.5935561 -2.832,-0.6865284 -5.66566,-1.1313461 -8.5914,-0.9391348 -3.7687,-0.010824 -7.53747,-0.015118 -11.30611,0.015719 -4.91539,0.05787 -9.83738,0.2178185 -14.70166,0.9968635 -6.56365,1.0932186 -13.07965,2.5402537 -19.189358,5.2587865 -2.756955,1.1962536 -3.919609,1.6579576 -6.58287,2.9772126 -3.838694,1.901509 -7.531505,4.08953 -11.274454,6.167804 -5.289769,3.23135 -10.584079,6.539377 -15.192182,10.718257 -5.040095,4.760249 -9.500409,10.066158 -13.782748,15.511764 -2.303688,3.02165 -4.662239,6.030968 -6.751818,9.208127 -1.856361,2.822559 -3.451667,5.818574 -5.020482,8.805699 -3.235306,6.537663 -6.157716,13.229036 -9.177882,19.867239 -2.702163,6.648386 -5.214934,13.38585 -7.088417,20.3206 -1.781657,6.30359 -3.305518,12.69166 -3.726546,19.25304 -0.621423,7.03399 -1.220707,14.07431 -1.02143,21.14509 -3.17e-4,6.70552 -0.01397,13.41152 0.10049,20.11634 0.17152,7.46342 0.457549,14.9426 1.589775,22.33334 1.119978,5.81176 2.352049,11.61361 4.558956,17.12826 1.846407,5.22192 3.757459,10.43321 6.212041,15.40635 0,0 3.562011,1.60029 3.562011,1.60029 z" />
    <path
       style="fill:#4d4d4d;stroke-width:0;paint-order:markers fill stroke"
       id="path1251"
       d="m 155.746,12.27479 c 5.39846,-1.674697 10.90469,-2.9398406 16.45683,-3.9791191 4.7934,-1.0181106 9.66567,-1.378494 14.54987,-1.5687051 3.15776,-0.011986 6.33261,-0.2752145 9.48638,0.00697 2.34827,0.2101098 3.17173,0.4374361 5.49436,0.8959736 4.98235,1.0773272 9.85722,2.5800606 14.61792,4.3918256 4.53731,1.93136 8.92259,4.189985 13.2287,6.586601 -0.48274,-0.274171 -1.86615,-1.18795 -1.44822,-0.822512 0.51105,0.446875 1.15835,0.708425 1.73233,1.070944 0.56,0.353689 1.1151,0.715127 1.66948,1.077578 1.9064,1.246411 3.76341,2.554786 5.61538,3.880283 4.14731,2.927477 8.03697,6.190729 11.79995,9.59168 3.21785,2.900971 5.39955,6.620177 7.49189,10.358843 2.9157,5.520917 5.21654,11.333618 7.23488,17.23328 1.69665,5.461672 3.29341,10.950927 4.78468,16.472075 1.87576,7.368042 3.09504,14.881084 4.00666,22.422384 0.85003,7.852449 1.17031,15.746279 1.33707,23.638359 0.0986,5.84612 0.045,11.69306 0.041,17.53959 0.0379,6.36318 0.009,12.72651 -0.003,19.08973 0.003,3.98554 -0.0225,7.98476 -0.52884,11.94499 -0.29213,2.28476 -0.80182,4.96813 -1.20841,7.23697 -0.98991,5.15024 -2.07118,10.31644 -3.85305,15.25873 -0.45188,1.34685 -0.97766,2.66673 -1.48595,3.99275 0,0 3.39926,1.88793 3.39926,1.88793 v 0 c 0.4871,-1.33978 0.99544,-2.67213 1.4364,-4.02824 1.72569,-4.99854 2.75537,-10.20375 3.73621,-15.39137 0.27315,-1.53708 1.03102,-5.7212 1.24407,-7.24835 0.55303,-3.96415 0.61648,-7.96819 0.5757,-11.96395 -0.006,-6.35826 -0.0257,-12.71672 0.0314,-19.07482 0.0127,-5.85951 -0.0138,-11.71928 -0.0984,-17.57824 -0.1696,-7.92279 -0.61601,-15.83611 -1.42672,-23.72112 -0.8274,-7.570265 -1.99427,-15.04762 -3.90326,-22.43032 -1.43989,-5.518923 -2.9572,-11.015964 -4.68294,-16.453554 -2.04819,-5.907622 -4.39094,-11.718406 -7.22237,-17.29822 -2.04286,-3.776361 -4.18176,-7.528419 -7.39413,-10.453132 -3.76952,-3.415211 -7.66824,-6.690763 -11.81493,-9.643203 -4.49796,-3.253786 -9.10934,-6.348475 -14.01419,-8.967927 -4.31189,-2.383219 -8.70487,-4.626763 -13.25078,-6.5341397 -4.76527,-1.7892313 -9.64328,-3.2692498 -14.62788,-4.3189797 -2.33924,-0.4451088 -3.1865,-0.6694887 -5.55296,-0.8711443 -3.16231,-0.2694726 -6.34481,-0.012949 -9.51012,0.01583 -4.88898,0.2087047 -9.76368,0.5717905 -14.55497,1.6331179 -5.59001,1.0861711 -11.12074,2.4248239 -16.61162,3.9343378 0,0 3.22226,2.186278 3.22226,2.186278 z" />
    <path
       style="fill:#4d4d4d;stroke-width:0;paint-order:markers fill stroke"
       id="path1253"
       d="m 247.02623,260.20874 c 1.55693,-1.19837 3.2313,-2.24767 4.76094,-3.48187 1.4157,-1.14226 1.96226,-1.7272 3.30244,-3.0151 3.54151,-4.01488 6.00286,-8.83235 8.64584,-13.45526 1.86245,-3.53343 3.63587,-7.11125 5.28089,-10.75088 1.84262,-4.12734 3.3328,-8.39601 5.137,-12.54048 1.7286,-3.50248 2.80633,-7.2372 3.56848,-11.05184 0.4068,-2.29084 0.22564,-1.15764 0.54661,-3.39911 0,0 -3.40098,-1.79261 -3.40098,-1.79261 v 0 c -0.30245,2.23298 -0.13092,1.1033 -0.51777,3.38856 -0.76385,3.7914 -1.80218,7.50313 -3.49916,10.99802 -1.79441,4.14563 -3.30251,8.40534 -5.14369,12.53038 -1.63756,3.63137 -3.46498,7.16814 -5.26342,10.72173 -2.57092,4.62121 -4.96362,9.44732 -8.57137,13.36815 -2.52705,2.36767 -5.21993,4.50794 -8.16377,6.34208 0,0 3.31796,2.13823 3.31796,2.13823 z" />
    <path
       style="fill:#4d4d4d;stroke-width:0;paint-order:markers fill stroke"
       id="path1255"
       d="m 123.96408,164.75664 c 0.81761,-0.0114 1.63533,-0.0114 2.45299,-0.0147 0,0 -3.16398,-2.29877 -3.16398,-2.29877 v 0 c -0.83114,-0.003 -1.66232,-0.003 -2.4934,-0.0147 0,0 3.20439,2.32813 3.20439,2.32813 z" />
    <path
       style="fill:#4d4d4d;stroke-width:0;paint-order:markers fill stroke"
       id="path1257"
       d="m 64.838161,115.88524 c 0.245145,-0.28901 0.434684,-0.63643 0.735436,-0.86701 1.376569,-1.05538 3.794707,-2.19305 5.25073,-2.88466 2.623378,-1.2461 4.547278,-2.09329 7.312795,-3.04796 1.310235,-0.4523 2.648574,-0.81866 3.972859,-1.22799 6.216026,-1.70632 12.643149,-2.44971 19.063109,-2.81976 0.58441,-0.0206 1.16882,-0.0413 1.75323,-0.0619 0,0 -3.113743,-2.24255 -3.113743,-2.24255 v 0 c -0.57993,0.0278 -1.159857,0.0556 -1.739786,0.0834 -6.380565,0.48432 -12.767882,1.2979 -18.947474,3.00676 -1.329888,0.41475 -2.67298,0.78933 -3.989668,1.24426 -2.938677,1.01534 -4.585509,1.75306 -7.377094,3.04437 -1.52773,0.70668 -4.060105,1.84598 -5.517181,2.89373 -0.315987,0.22722 -0.523161,0.57637 -0.784741,0.86456 0,0 3.381528,2.0148 3.381528,2.0148 z" />
    <path
       style="fill:#4d4d4d;stroke-width:0;paint-order:markers fill stroke"
       id="path1259"
       d="m 176.18927,101.49805 c 8.65874,-0.4062 17.27496,0.61966 25.79113,2.08717 6.17284,1.06673 12.04837,3.25303 18.00467,5.11222 0.5581,0.18437 1.1162,0.36873 1.67431,0.5531 0,0 -3.03213,-2.35193 -3.03213,-2.35193 v 0 c -0.54944,-0.17543 -1.09888,-0.35086 -1.64832,-0.52629 -5.90657,-1.81387 -11.73944,-3.93766 -17.8619,-4.94157 -6.33697,-1.04844 -12.71122,-1.887056 -19.1375,-2.138942 -1.27362,-0.04992 -2.54919,-0.0093 -3.82373,-0.02088 -1.0299,-0.0093 -2.0597,-0.02793 -3.08955,-0.04189 0,0 3.12302,2.269012 3.12302,2.269012 z" />
    <path
       style="fill:#4d4d4d;stroke-width:0;paint-order:markers fill stroke"
       id="path1261"
       d="m 144.75901,211.49346 c 2.4353,0.1634 4.80276,0.85634 7.17186,1.41671 1.74609,0.35715 0.88549,0.19096 2.58147,0.5004 0,0 -3.09868,-2.33871 -3.09868,-2.33871 v 0 c -1.68262,-0.3128 -0.82754,-0.14306 -2.56477,-0.51161 -2.39779,-0.56164 -4.78935,-1.24072 -7.25487,-1.41042 0,0 3.16499,2.34363 3.16499,2.34363 z" />
    <path
       style="fill:#4d4d4d;stroke-width:0;paint-order:markers fill stroke"
       id="path1263"
       d="m 45.913087,183.30896 c 0.123076,5.04699 0.109815,10.09578 0.112144,15.14389 0.107939,5.16499 -0.215197,10.34666 0.113538,15.50681 0.06698,1.05138 0.187272,2.09868 0.280908,3.14802 0.170458,1.062 0.265432,2.1389 0.511376,3.18599 1.391594,5.92466 4.018846,11.46606 6.687759,16.89731 3.045394,6.19738 3.75366,7.30339 7.054247,13.251 4.313076,7.37215 9.682016,13.81864 15.340052,20.16348 0,0 3.217306,1.35289 3.217306,1.35289 v 0 c -1.229889,-1.35956 -2.491702,-2.69092 -3.689667,-4.07868 -4.354756,-5.04474 -8.398523,-10.36646 -11.837524,-16.08318 -3.236339,-5.774 -4.147169,-7.20504 -7.075522,-13.23415 -2.601312,-5.35577 -5.049348,-10.80995 -6.372701,-16.6418 -0.236215,-1.04097 -0.345115,-2.10679 -0.517671,-3.16019 -0.09688,-1.04367 -0.222533,-2.08506 -0.290631,-3.131 -0.335704,-5.15615 0.0072,-10.33656 -0.126566,-15.49766 0.0024,-5.01001 -0.01193,-10.02074 0.112143,-15.02962 0,0 -3.519191,-1.79311 -3.519191,-1.79311 z" />
    <path
       style="fill:#4d4d4d;stroke-width:0;paint-order:markers fill stroke"
       id="path1265"
       d="m 89.520608,278.22474 c -0.63319,-3.97332 -1.002416,-7.9729 -1.242055,-11.98702 -0.286599,-6.26633 -0.317182,-12.54181 -0.316018,-18.81368 -0.0035,-4.02753 0.05242,-8.05478 0.06819,-12.08219 -0.104474,-2.61399 0.295219,-5.18263 0.942041,-7.70428 0.479459,-1.59544 0.923441,-3.20528 1.575041,-4.74082 0,0 -3.42609,-1.91962 -3.42609,-1.91962 v 0 c -0.639564,1.56301 -1.081413,3.19469 -1.566259,4.81049 -0.645893,2.55432 -1.090094,5.1494 -0.970397,7.79809 0.0067,4.05129 0.05264,8.10249 0.06864,12.15375 0.04171,6.27021 0.03505,12.54229 0.26416,18.80945 0.207499,3.9887 0.564163,7.95853 1.077669,11.91979 0,0 3.52507,1.75604 3.52507,1.75604 z" />
    <path
       style="fill:#4d4d4d;stroke-width:0;paint-order:markers fill stroke"
       id="path1269"
       d="m 85.419649,238.23142 c 3.253364,9.53454 8.652584,18.11737 13.814213,26.70193 0.919138,1.48439 1.838278,2.96878 2.757428,4.45317 0,0 3.21106,1.416 3.21106,1.416 v 0 c -0.94448,-1.49363 -1.88897,-2.98728 -2.83345,-4.4809 -5.127531,-8.43936 -10.46892,-16.93901 -13.439307,-26.42881 0,0 -3.509944,-1.66139 -3.509944,-1.66139 z" />
    <path
       style="fill:#4d4d4d;stroke-width:0;paint-order:markers fill stroke"
       id="path1273"
       d="m 110.64906,274.72801 c -0.0925,-3.9256 -0.11186,-7.84754 0.12985,-11.76756 0.51299,-4.8622 1.64462,-9.6385 2.56625,-14.4357 0.65106,-3.36713 0.93651,-6.78878 1.16792,-10.20572 0,0 -3.41691,-1.76677 -3.41691,-1.76677 v 0 c -0.17699,3.41539 -0.44609,6.83135 -1.07906,10.19734 -0.46836,2.4961 -0.97739,4.98321 -1.4629,7.476 -0.0977,0.50187 -0.83128,4.2542 -0.91163,4.80462 -0.10602,0.72624 -0.15119,1.46008 -0.22679,2.19012 -0.24699,3.90372 -0.22221,7.80984 -0.27596,11.71964 0,0 3.50923,1.78803 3.50923,1.78803 z" />
  </g>
  <g
     inkscape:groupmode="layer"
     id="layer3"
     inkscape:label="圖層 3"
     style="fill:#cccccc"
     sodipodi:insensitive="true">
    <path
       style="fill:#cccccc;stroke-width:0;paint-order:markers fill stroke"
       d="m 89.419352,245.19354 c 0,0 -16.322579,-40.09677 -14.193549,-79.48387 2.129033,-39.38709 16.854839,-77.177415 40.629027,-103.080639 23.7742,-25.903227 65.82258,-28.387096 75.40323,-28.919355 9.58064,-0.532257 26.79032,1.774192 26.79032,1.774192 0,0 47.19355,-4.258064 69.37095,5.854841 22.17743,10.112901 42.22581,36.548384 49.85486,100.774191 7.62902,64.2258 -10.46774,105.03225 -14.19355,113.7258 -3.72581,8.69355 -15.6129,25.19354 -21.82259,31.75806 -6.20967,6.56453 -34.77419,18.27419 -34.77419,18.27419 0,0 7.80645,-20.75807 10.46774,-30.69354 2.66128,-9.93548 9.22582,-34.24193 9.22582,-34.24193 0,0 -10.29032,8.3387 -37.08066,19.51612 -26.79032,11.17743 -39.74193,11.70969 -42.75806,11.70969 -3.01613,0 -12.06451,-3.19355 -16.67742,-4.61291 -4.6129,-1.41935 -16.67742,-7.09678 -16.67742,-7.09678 0,0 -4.6129,18.27419 -5.85483,25.5484 -1.24194,7.27419 -1.7742,23.59676 -1.7742,23.59676 0,0 -9.40322,-12.95162 -11.70967,-19.16128 -2.30646,-6.2097 -4.96775,-16.5 -4.96775,-16.5 0,0 -3.54838,9.58064 -3.7258,16.14516 -0.17742,6.5645 -0.8871,18.09676 -0.8871,18.09676 0,0 -6.20968,-11.35483 -8.16129,-17.38709 -1.95161,-6.03226 -5.5,-27.67742 -5.5,-27.67742 0,0 -2.83871,10.1129 -4.96774,19.87097 -2.12903,9.75807 -2.83871,22.17742 -2.83871,22.17742 0,0 -12.95161,-18.09678 -14.19355,-28.74195 -1.24193,-10.64514 -5.5,-65.64515 -5.5,-65.64515 z"
       id="path453"
       sodipodi:nodetypes="cssscsssscscssscscscscscscscc" />
    <path
       style="fill:#999999;stroke-width:0;paint-order:markers fill stroke"
       d="m 121.17741,195.51612 -1.24193,10.64516 c 0,0 16.32258,32.1129 26.43548,40.45161 10.11291,8.33871 27.14516,14.19355 27.14516,14.19355 0,0 -3.37097,9.93549 -4.25806,14.90323 -0.8871,4.96773 -28.3871,-7.45162 -37.43549,-21.46774 -9.04838,-14.01613 -18.45161,-36.72581 -21.99999,-37.43549 -3.54839,-0.70967 -6.03226,3.90323 -6.03226,3.90323 l -1.06452,-7.45161 c 0,0 18.80645,-50.20968 23.06452,-62.09677 4.25806,-11.8871 32.29032,-72.387099 32.29032,-72.387099 0,0 11.35484,55.354839 15.6129,66.532249 4.25807,11.17743 36.90323,62.45162 40.27419,66.70968 3.37097,4.25806 1.24194,1.59677 1.24194,1.59677 0,0 -7.80645,-3.37096 -18.62903,-16.14516 -10.82258,-12.77419 -24.48387,-40.45161 -27.85484,-45.06451 -3.37097,-4.6129 -9.75806,-6.3871 -18.80645,-6.20968 -9.04839,0.17742 -19.16129,9.40323 -22.8871,17.56452 -3.7258,8.16129 -6.74193,11.70968 -7.09677,18.27419 -0.35484,6.56452 1.24193,13.48387 1.24193,13.48387 z"
       id="path875" />
    <path
       style="fill:#999999;stroke-width:0;paint-order:markers fill stroke"
       d="m 230.99999,149.56451 c 0,0 4.08065,-12.95161 5.14516,-20.58064 1.06452,-7.62904 3.19355,-30.693552 3.19355,-30.693552 0,0 14.54839,26.790322 24.48387,34.596772 9.93548,7.80645 16.5,18.45161 16.5,18.45161 0,0 -9.40324,-8.69355 -26.43548,-7.62903 -17.03226,1.06452 -22.8871,5.85484 -22.8871,5.85484 z"
       id="path877" />
    <path
       style="fill:#999999;stroke-width:0;paint-order:markers fill stroke"
       d="m 294.16129,164.99999 25.19354,24.12903 c 0,0 -4.4355,-3.54838 -11.53226,-3.7258 -7.09679,-0.17742 -7.45162,0.35484 -7.45162,0.35484 0,0 1.77419,-5.32258 -0.70966,-10.46774 -2.48389,-5.14517 -5.5,-10.29033 -5.5,-10.29033 z"
       id="path879" />
    <path
       style="fill:#999999;stroke-width:0;paint-order:markers fill stroke"
       d="m 281.3871,298.24193 c 0,0 7.09676,-0.70969 14.54838,-6.20969 7.45161,-5.5 17.20966,-19.16129 17.20966,-19.16129 0,0 3.72581,-10.82257 4.4355,-20.58064 0.70967,-9.75806 1.0645,-25.54838 1.0645,-25.54838 0,0 -7.98386,31.58064 -10.82257,39.03226 -2.83871,7.4516 -6.91936,15.43548 -11,20.04838 -4.08064,4.61291 -15.43547,12.41936 -15.43547,12.41936 z"
       id="path881" />
  </g>
  <g
     inkscape:groupmode="layer"
     id="layer2"
     inkscape:label="圖層 2"
     style="display:inline;fill:#000000"
     transform="translate(59.612902,20.935483)"
     sodipodi:insensitive="true">
    <path
       style="opacity:1;fill:#000000;stroke-width:0;paint-order:markers fill stroke"
       d="M 97.101725,44.661774 C 95.345365,134.98896 156.81803,195.458 156.81803,195.458 c 0,0 0.25091,-19.31999 4.26545,-31.61452 4.01454,-12.29453 10.53818,-28.3527 14.55272,-42.90541 3.9163,-14.1966 6.27271,-31.363609 5.77089,-40.898147 -0.50181,-9.534536 -6.0218,-34.374512 -6.0218,-34.374512 0,0 2.75999,15.556348 2.25818,32.116333 -0.50182,16.559985 -3.26182,34.625426 -8.02909,49.930866 -4.76726,15.30544 -16.05375,40.85843 -15.70332,57.50247 0.0319,1.51437 -0.28135,2.64216 -0.28135,2.64216 0,0 -19.14257,-27.27557 -25.16438,-39.06829 -6.02181,-11.79272 -15.05453,-31.36361 -19.8218,-47.42177 C 103.87626,85.30901 97.101725,44.661774 97.101725,44.661774 Z"
       id="path408"
       sodipodi:nodetypes="ccssscssscssc" />
    <path
       style="opacity:1;fill:#000000;stroke-width:0;paint-order:markers fill stroke"
       d="m 155.03929,14.330082 c 0,0 -63.693541,-14.19354847 -102.37096,29.983869 -38.677419,44.17742 -38.794496,91.954849 -38.677419,118.870969 0.118716,27.29293 15.96774,68.12903 15.96774,68.12903 0,0 19.338711,-53.58065 30.33871,-81.08065 11.000001,-27.49999 35.483871,-86.758058 35.483871,-86.758058 0,0 -30.516129,62.096778 -39.919354,86.580638 -9.403226,24.48388 -25.695366,71.06646 -25.695366,71.06646 0,0 -13.846833,-34.59332 -13.808269,-65.86563 0.03381,-27.41974 4.792332,-60.362004 24.111201,-89.396304 19.388776,-29.139365 30.931848,-38.730914 63.473076,-47.981937 20.34905,-5.784953 51.09677,-3.548387 51.09677,-3.548387 z"
       id="path506"
       sodipodi:nodetypes="csscscscsssc" />
    <path
       style="opacity:1;fill:#000000;stroke-width:0;paint-order:markers fill stroke"
       d="m 174.38165,145.02532 c 0,0 11.79272,-20.82544 42.65451,-12.29454 30.86178,8.5309 27.34906,35.12724 24.08724,45.66541 -3.26181,10.53818 -7.35312,16.08063 -12.04362,22.33089 -0.89187,1.18844 9.53454,-16.05817 9.78545,-29.10543 0.25091,-13.04726 -0.50182,-17.56361 -10.28727,-27.09815 -9.78544,-9.53454 -21.32725,-10.28726 -30.86178,-8.78181 -9.53454,1.50545 -23.33453,9.28363 -23.33453,9.28363 z"
       id="path508"
       sodipodi:nodetypes="cssssssc" />
    <path
       style="opacity:1;fill:#000000;stroke-width:0;paint-order:markers fill stroke"
       d="m 196.96345,196.46163 c 0,0 -3.8854,-20.56714 -2.25818,-33.11997 1.75637,-13.54907 5.7709,-23.83634 19.31998,-23.58543 13.54908,0.25091 20.57452,15.05453 20.82543,21.07635 0.25091,6.02181 0.25091,18.06543 -2.25817,24.58906 -2.50909,6.52363 -6.52363,12.79635 -6.52363,12.79635 0,0 -7.77818,0.50182 -14.55272,0.50182 -6.77454,0 -14.55271,-2.25818 -14.55271,-2.25818 z"
       id="path510"
       sodipodi:nodetypes="csssscsc" />
    <path
       style="opacity:1;fill:#000000;stroke-width:0;paint-order:markers fill stroke"
       d="m 70.003568,194.20345 c 0,0 -10.036352,-9.78544 -11.290898,-23.33452 -1.254543,-13.54908 1.254546,-22.5818 7.527267,-29.35634 6.27272,-6.77454 14.050896,-8.27999 22.079979,-6.77454 8.029082,1.50546 10.287265,13.79999 10.287265,13.79999 0,0 -3.010909,-10.53817 -12.294535,-10.28726 -9.283628,0.25091 -13.29817,0.75272 -19.570893,9.28363 -6.27272,8.5309 -4.516358,17.0618 -3.261815,25.09088 1.254546,8.02908 6.52363,21.57816 6.52363,21.57816 z"
       id="path512" />
    <path
       style="opacity:1;fill:#000000;stroke-width:0;paint-order:markers fill stroke"
       d="m 81.294469,192.19618 c 0,0 -5.269087,-15.05453 -5.018178,-25.5927 0.250907,-10.53817 1.050547,-18.21162 4.516359,-22.83271 3.763632,-5.01818 6.272722,-5.26908 12.043626,-0.75272 5.770905,4.51636 6.774535,19.8218 6.272725,30.35997 -0.50182,10.53817 -2.760003,19.31998 -2.760003,19.31998 0,0 -4.014541,0.75273 -8.279992,0.75273 -4.265449,0 -6.774537,-1.25455 -6.774537,-1.25455 z"
       id="path514"
       sodipodi:nodetypes="csssscsc" />
    <path
       style="opacity:1;fill:#000000;stroke-width:0;paint-order:markers fill stroke"
       d="m 61.221759,187.42891 c 0,0 14.321557,31.24112 27.599973,40.89815 16.559988,12.04362 51.687228,23.83634 57.458128,23.58543 5.7709,-0.25091 28.76536,-4.46543 42.65451,-10.53817 13.17246,-5.75938 35.12723,-19.57089 35.12723,-19.57089 0,0 -20.33211,10.85399 -35.62906,17.0618 -14.19813,5.76189 -36.05476,12.13494 -42.32748,11.63312 -6.27272,-0.50181 -44.24267,-16.99025 -55.526964,-24.42948 -11.329505,-7.46903 -29.356337,-38.63996 -29.356337,-38.63996 z"
       id="path554"
       sodipodi:nodetypes="cssscsssc" />
    <path
       style="opacity:1;fill:#000000;stroke-width:0;paint-order:markers fill stroke"
       d="m 183.07155,83.16879 c 0,0 21.29032,36.19355 36.54839,49.32258 15.25806,13.12903 40.45161,37.6129 40.45161,37.6129 0,0 -0.35484,-28.91936 -7.80645,-54.64516 -4.57333,-15.788876 -25.19355,-50.387094 -25.19355,-50.387094 0,0 15.08065,32.290323 21.64516,53.580644 5.22758,16.95431 8.51613,44.53225 8.51613,44.53225 0,0 -24.83871,-22.53225 -39.74193,-39.56451 -14.90323,-17.03226 -34.41936,-40.45161 -34.41936,-40.45161 z"
       id="path556"
       sodipodi:nodetypes="cscscscsc" />
    <path
       style="opacity:1;fill:#000000;stroke-width:0;paint-order:markers fill stroke"
       d="m 151.49091,15.749436 c 0,0 64.2258,-13.1290315 92.6129,13.129032 28.3871,26.258065 35.12903,78.419352 36.54839,119.580642 1.41935,41.16129 -7.62904,61.03226 -12.59678,79.83871 -4.96774,18.80645 -27.5,39.74193 -27.5,39.74193 0,0 18.83745,-23.39584 24.8387,-42.04838 6.56452,-20.40323 13.35939,-55.14224 11.70968,-80.90322 -2.30643,-36.01614 -7.62902,-83.387102 -28.03226,-105.032262 -20.40322,-21.645162 -30.3387,-20.935484 -48.43547,-23.596774 -18.09678,-2.66129 -49.14516,-0.709678 -49.14516,-0.709678 z"
       id="path558"
       sodipodi:nodetypes="cssscssssc" />
    <path
       style="opacity:1;fill:#000000;stroke-width:0;paint-order:markers fill stroke"
       d="m 231.83978,198.4689 c 0,0 -8.53091,30.10907 -12.79635,44.41087 -3.50284,11.74484 -15.05453,44.15995 -15.05453,44.15995 0,0 17.56361,-5.77089 28.10179,-15.05451 10.53817,-9.28364 15.30544,-18.31636 18.81816,-30.10907 3.51272,-11.79272 8.27999,-37.38543 8.27999,-37.38543 0,0 -8.5309,28.85452 -12.29453,38.63997 -3.76363,9.78544 -7.31689,16.44073 -15.80726,25.09088 -10.48672,10.68407 -21.57816,13.54907 -21.57816,13.54907 0,0 7.5458,-21.35881 12.04363,-38.63995 4.76726,-18.31635 10.28726,-44.66178 10.28726,-44.66178 z"
       id="path601"
       sodipodi:nodetypes="cscsscsscsc" />
    <path
       style="opacity:1;fill:#000000;stroke-width:0;paint-order:markers fill stroke"
       d="m 136.85381,215.08008 c 0,0 5.41129,0 8.78226,0.9758 3.37097,0.97581 7.00806,4.16936 7.00806,4.16936 0,0 -4.70161,-2.39516 -7.54032,-3.10484 -2.83871,-0.70968 -8.25,-2.04032 -8.25,-2.04032 z"
       id="path645" />
    <path
       style="opacity:1;fill:#000000;stroke-width:0;paint-order:markers fill stroke"
       d="m 118.13607,167.70911 c 3.81452,3.37097 7.80645,5.76613 7.80645,5.76613 0,0 -1.8629,-0.0887 -4.25806,-1.15323 -2.39516,-1.06451 -3.54839,-4.6129 -3.54839,-4.6129 z"
       id="path647" />
    <path
       style="display:inline;opacity:1;fill:#000000;stroke-width:0;paint-order:markers fill stroke"
       d="m 44.159958,196.71254 c 0,0 -2.007272,25.09089 0.752726,43.90905 2.759998,18.81816 3.512725,23.58543 7.276356,31.61451 3.763635,8.02909 12.043627,19.06907 12.043627,19.06907 0,0 1.003634,-13.54907 3.512722,-28.35269 2.509089,-14.80362 7.527266,-34.37451 7.527266,-34.37451 0,0 -6.774539,18.06543 -10.036354,28.85451 -3.261815,10.78908 -4.516359,20.82543 -4.516359,20.82543 0,0 -9.283628,-17.81452 -11.03999,-30.35996 -1.756363,-12.54545 -5.519994,-51.18541 -5.519994,-51.18541 z"
       id="path649" />
    <path
       style="display:inline;fill:#000000;stroke-width:0;paint-order:markers fill stroke"
       d="m 72.512657,250.15612 c 0,0 0,8.02908 2.258179,18.06544 2.258179,10.03635 10.789081,25.84361 10.789081,25.84361 0,0 -0.25091,-12.04362 0.25091,-17.31272 0.501816,-5.26907 3.010905,-18.81815 3.010905,-18.81815 0,0 3.261815,11.29089 6.021811,16.30908 2.759998,5.01817 12.545447,18.81815 12.545447,18.81815 0,0 -0.12546,-13.4236 0.62727,-22.70725 0.75272,-9.28362 4.89272,-27.72542 4.89272,-27.72542 0,0 -5.14363,14.3018 -6.77454,22.45634 -1.34309,6.71549 -2.00727,17.68906 -2.00727,17.68906 0,0 -7.026694,-10.36527 -9.785445,-16.43452 -3.763632,-8.27999 -4.390903,-24.08725 -4.390903,-24.08725 0,0 -3.38727,11.91817 -5.519995,23.83634 -1.640668,9.16845 -1.129089,16.55999 -1.129089,16.55999 0,0 -4.76727,-9.15818 -6.021813,-13.92544 -1.254543,-4.76727 -4.767268,-18.56726 -4.767268,-18.56726 z"
       id="path326"
       sodipodi:nodetypes="cscscscscscscscsc" />
    <path
       style="fill:#000000;stroke-width:0;paint-order:markers fill stroke"
       d="m 48.927225,125.70533 c 0,0 12.043624,-9.03271 25.090885,-13.79998 13.04726,-4.76727 35.37815,-3.26182 35.37815,-3.26182 0,0 -22.079981,3.01091 -33.621788,6.52363 -11.541807,3.51272 -26.847247,10.53817 -26.847247,10.53817 z"
       id="path424" />
    <path
       style="fill:#000000;stroke-width:0;paint-order:markers fill stroke"
       d="m 168.61074,105.63262 c 0,0 14.80363,-1.75636 28.60361,0.50182 13.79999,2.25818 36.13088,12.29454 36.13088,12.29454 0,0 -17.81453,-5.77091 -30.61088,-7.52727 -12.79635,-1.75636 -34.12361,-5.26909 -34.12361,-5.26909 z"
       id="path426" />
    <ellipse
       style="fill:#b3b3b3;stroke-width:0;paint-order:markers fill stroke"
       id="path582"
       cx="92.498978"
       cy="162.12041"
       rx="4.8790321"
       ry="9.4032249" />
    <ellipse
       style="display:inline;fill:#b3b3b3;stroke-width:0;paint-order:markers fill stroke"
       id="path582-7"
       cx="224.23283"
       cy="164.95912"
       rx="4.8790321"
       ry="9.4032249" />
    <ellipse
       style="fill:#b3b3b3;stroke-width:0;paint-order:markers fill stroke"
       id="path766"
       cx="85.579613"
       cy="152.89459"
       rx="1.5080645"
       ry="2.4838707" />
    <ellipse
       style="display:inline;fill:#b3b3b3;stroke-width:0;paint-order:markers fill stroke"
       id="path766-7"
       cx="215.00703"
       cy="154.84622"
       rx="1.5080645"
       ry="2.4838707" />
    <path
       style="fill:#ffffff;stroke-width:0;paint-order:markers fill stroke"
       d="m 96.13607,183.2333 c 0,0 -4.967743,2.21774 -7.983871,-1.33064 -3.016131,-3.54839 -5.41129,-11.35484 -5.056452,-16.14516 0.354838,-4.79033 1.508064,-9.93549 1.508064,-9.93549 0,0 -2.217741,6.83065 -2.306451,11 -0.08871,4.16936 0.975805,13.30645 4.258065,15.87903 3.282256,2.57258 4.879031,2.39516 6.032257,2.30645 1.153226,-0.0887 3.548388,-1.77419 3.548388,-1.77419 z"
       id="path790"
       sodipodi:nodetypes="csscsssc" />
    <path
       style="fill:#ffffff;stroke-width:0;paint-order:markers fill stroke"
       d="m 213.20979,149.72985 c 0,0 -5.83363,2.69728 -8.27999,8.40545 -2.44636,5.70818 -4.26545,17.62635 -1.19182,23.58543 3.07364,5.95909 5.89636,10.72636 12.79635,10.85181 6.9,0.12545 11.54181,-4.20272 12.92181,-6.02181 1.38,-1.81909 2.07,-3.38727 2.07,-3.38727 0,0 -2.82273,4.01454 -6.21,5.70818 -3.38727,1.69363 -7.52726,2.94817 -10.78908,1.94454 -3.26181,-1.00364 -8.40544,-6.4609 -9.53453,-11.66726 -1.12909,-5.20636 -1.31727,-10.03636 -0.25091,-14.80362 1.06636,-4.76727 1.75636,-5.77091 3.57545,-8.78181 1.81909,-3.01091 4.89272,-5.83364 4.89272,-5.83364 z"
       id="path792" />
  </g>
  <g
     inkscape:groupmode="layer"
     id="layer4"
     inkscape:label="圖層 4"
     style="fill:#000000"
     transform="translate(-0.50181769,-49.429044)">
    <path
       style="fill:#000000;stroke-width:0;paint-order:markers fill stroke"
       d="M 40.48511,56.485455 C 36.039838,81.337619 23.364253,97.215408 4.4889783,112.72739 c 0,0 14.9032247,-8.51613 21.9999997,-16.145162 7.096773,-7.629033 12.774192,-16.677417 12.774192,-16.677417 0,0 4.080645,9.225803 10.999999,17.919357 6.919357,8.693542 22.354838,16.677412 22.354838,16.677412 0,0 -11.709677,-10.29032 -18.451612,-19.516125 C 47.42446,85.759648 42.298978,73.662844 42.298978,73.662844 c 0.261844,-0.130922 1.090275,-3.988958 1.790177,-7.440848 0.870817,-4.294837 1.84399,-8.591466 1.84399,-8.591466 z"
       id="path938"
       sodipodi:nodetypes="ccscscscscc" />
    <path
       style="fill:#000000;stroke-width:0;paint-order:markers fill stroke"
       d="m 24.422987,117.1146 c -2.838708,14.19354 -13.12903,19.51612 -13.12903,19.51612 0,0 4.790322,-2.12903 6.741935,-3.19355 1.951613,-1.06451 5.322581,-3.01612 5.322581,-3.01612 0,0 10.112902,-1.7742 11.177419,-0.17743 1.064516,1.59678 0.887097,12.7742 0.887097,12.7742 0,0 -5.499999,0.70967 -8.693549,0.70967 -3.193548,0 -10.82258,-2.48386 -10.82258,-2.48386 0,0 0.532258,2.48386 4.967742,5.14515 4.435484,2.66129 3.370967,1.24194 8.516128,0 5.145162,-1.24193 5.85484,-0.70967 5.85484,-0.70967 l 0.354838,13.66129 c 0,0 -4.967742,1.77419 -10.645161,2.30645 -5.677419,0.53226 -13.48387,-3.01613 -13.48387,-3.01613 0,0 -0.709678,0.35484 1.241935,4.96774 1.951613,4.61291 1.419355,2.66129 9.935483,1.95162 8.516128,-0.70968 17.919356,-2.12904 25.548386,-1.24194 7.629033,0.88709 16.854839,2.66129 16.854839,2.66129 0,0 1.951612,-1.24194 0.354838,-3.90323 -1.596773,-2.66129 -3.903226,-4.96774 -3.903226,-4.96774 0,0 -6.032256,1.59678 -10.112901,1.59678 -4.080645,0 -10.112904,-0.53226 -10.112904,-0.53226 L 40.74557,145.67911 c 0,0 2.66129,-1.24194 7.096773,-1.59678 4.435483,-0.35484 15.080644,2.83871 15.080644,2.83871 0,0 -0.709676,-4.79032 -3.903226,-6.20967 -3.193547,-1.41936 -7.62903,0.35483 -10.467742,0.35483 -2.838709,0 -8.16129,0.70968 -8.16129,0.70968 0,0 -1.774192,-9.93548 -0.177419,-11.53226 1.596774,-1.59677 6.032259,-2.48386 9.758066,-2.48386 3.725805,0 12.419354,2.12903 12.419354,2.12903 0,0 0.532257,-5.14517 -2.838709,-6.91936 -3.370969,-1.77419 -6.387097,-0.17742 -10.290323,0.53226 -3.903226,0.70968 -9.225807,2.30645 -10.112904,1.06452 -0.887095,-1.24194 1.064518,-9.58065 1.064518,-9.58065 0,0 -3.903227,0 -5.5,1.59678 -1.596774,1.59677 0.532258,7.98387 -1.064518,9.04838 -1.596774,1.06452 -6.564515,1.06452 -6.564515,1.06452 0,0 0.35484,-3.37097 1.596775,-5.32259 1.241936,-1.95161 -4.258067,-4.25805 -4.258067,-4.25805 z"
       id="path940"
       sodipodi:nodetypes="ccscscscssccscssscscsccscsscsscssscsscsc" />
    <path
       style="fill:#000000;stroke-width:0;paint-order:markers fill stroke"
       d="m 23.459978,182.03437 c 0,0 11.165443,1.50545 18.19089,1.50545 7.025449,0 18.190892,-2.88545 19.445438,-2.25818 1.254543,0.62727 3.387267,5.89636 3.387267,5.89636 0,0 -5.143629,-0.87818 -10.161807,-0.75273 -5.018177,0.12546 -7.903628,-0.25091 -8.781809,0.37637 -0.878181,0.62727 -7.778176,6.52363 -7.778176,6.52363 0,0 8.405448,1.00363 12.670899,0.87818 4.265448,-0.12546 10.914533,-2.63455 13.298167,-1.75637 2.383634,0.87819 3.13636,0.62728 3.38727,2.63455 0.250909,2.00727 -1.756363,4.01454 -1.630908,9.65999 0.125455,5.64545 1.129091,15.80726 2.132727,17.81453 1.003633,2.00727 2.332018,4.51944 0.878179,5.26908 -3.010906,1.5525 -7.888223,-0.7471 -9.362036,-2.13273 -1.834771,-1.72499 -4.437951,-5.14362 -4.437951,-5.14362 0,0 3.63818,1.12909 4.892723,1.50545 1.254545,0.37636 1.254545,0.75273 2.383633,-0.50182 1.129091,-1.25454 0.878182,-6.52363 0.627275,-10.41272 -0.25091,-3.88908 -0.752727,-11.91817 -0.752727,-11.91817 0,0 -1.38,-1.25454 -4.265451,-1.25454 -2.885453,0 -6.52363,-0.62727 -7.527266,0.62727 -1.003636,1.25455 -1.756362,7.65272 -1.505453,12.6709 0.25091,5.01818 1.881818,15.80726 1.881818,15.80726 0,0 -2.509089,-0.12546 -4.516361,-2.38364 -2.007269,-2.25818 -0.627272,-8.40544 -0.878181,-14.3018 -0.250907,-5.89636 -0.376362,-11.54181 -0.376362,-11.54181 0,0 -2.885453,-1.25454 -5.519994,-1.25454 -2.634544,0 -5.770904,1.6309 -5.645452,4.64181 0.125455,3.01091 2.132727,24.58907 2.132727,24.58907 0,0 -2.509089,1.12909 -4.265451,-1.25455 -1.756362,-2.38363 -0.125455,-5.51999 -0.501817,-12.16907 -0.376364,-6.64909 -0.752727,-13.17272 -0.752727,-13.17272 0,0 -1.379999,-2.25818 -4.641814,-2.25818 -3.261815,0 -5.018177,1.63091 -5.645449,2.88545 -0.627272,1.25454 -0.627272,8.65636 -0.501817,12.16908 0.125454,3.51273 1.630907,8.90726 0.125454,11.79272 -1.505453,2.88545 -2.007271,2.88545 -2.885452,2.88545 -0.878181,0 -2.383634,-2.13273 -2.007271,-4.01454 0.376364,-1.88182 1.630908,-3.76363 1.379999,-10.41272 -0.250909,-6.64908 -0.125454,-13.54908 -1.505453,-15.43089 -1.379999,-1.88182 -0.627272,-1.88182 0.752727,-3.88909 1.379998,-2.00727 2.258179,-2.13273 3.387269,-2.13273 1.12909,0 2.007271,1.75637 5.269086,2.13273 3.261815,0.37636 7.65272,-0.62727 9.785444,-2.00727 2.132727,-1.38 4.516361,-4.89272 4.516361,-4.89272 0,0 -7.02545,-0.50182 -9.534537,-0.25091 -2.509088,0.25091 -8.530901,2.25817 -9.659991,1.75636 -1.12909,-0.50182 -2.634543,-1.00364 0.376364,-3.38727 3.010906,-2.38364 4.139996,-3.13636 4.139996,-3.13636 z"
       id="path942"
       sodipodi:nodetypes="csscsscssssssscssscssscsscsscsscsssssssssssscsssc" />
    <path
       style="fill:#000000;stroke-width:0;paint-order:markers fill stroke"
       d="m 40.544834,231.28339 c 0,0 -4.366352,5.54654 -6.398178,7.40181 -1.363696,1.2452 -8.029082,8.40544 -10.538171,9.03272 -2.509088,0.62727 -3.512723,-0.50182 -4.516359,0.50181 -1.003635,1.00364 1.881817,8.40545 2.885452,19.94726 1.003635,11.5418 -3.763633,30.86178 -2.132725,32.24179 1.630907,1.37999 1.881816,3.13634 4.390905,3.0109 2.509088,-0.12546 4.516359,-1.50545 13.047261,-1.63091 8.530899,-0.12544 19.194527,-0.18817 22.707249,0.81544 3.512724,1.00365 2.069998,0.81548 4.579087,-0.68998 2.509089,-1.50545 0.188181,-2.07 -0.564546,-4.45363 -0.752726,-2.38364 -0.06273,-1.94455 -3.32454,-1.31728 -3.261815,0.62728 -12.231807,1.50546 -19.131802,1.63091 -6.899992,0.12545 -15.807256,0.12545 -15.807256,0.12545 0,0 -1.12909,0 -0.501818,-4.64181 0.627272,-4.64181 0.501818,-9.78544 1.003635,-10.41272 0.501818,-0.62727 7.025447,-0.75272 13.799987,-1.00363 6.774539,-0.25091 13.925441,-1.00364 15.556349,-0.25091 1.630907,0.75273 1.12909,2.25818 1.12909,4.26545 0,2.00727 -1.756362,5.14363 -1.003636,6.02181 0.752727,0.87818 2.132725,2.76 3.010906,3.13636 0.878181,0.37637 1.379998,-0.75272 2.634543,-1.00363 1.254543,-0.25091 0.25091,0.75272 0,-3.88909 -0.250909,-4.64181 -1.505452,-9.15817 -0.501816,-11.79272 1.003633,-2.63454 1.254543,-1.88181 -2.132727,-4.26544 -3.38727,-2.38364 -1.379998,-0.87819 -4.014542,1.00363 -2.634543,1.88182 -6.147265,2.00727 -13.674531,2.13273 -7.527266,0.12545 -13.549078,0.75272 -14.301805,0.12545 -0.752726,-0.62727 -1.379998,-11.41635 -0.878181,-12.04363 0.501818,-0.62727 7.40181,-2.13272 14.301805,-2.50909 6.899994,-0.37636 12.545443,-1.25454 13.549076,-0.2509 1.003636,1.00363 1.881818,3.51272 1.881818,4.64181 0,1.12909 -1.756363,1.88182 -1.254543,2.76 0.501816,0.87818 2.509088,0.75273 4.139996,1.63091 1.630905,0.87818 2.383634,3.51272 3.763632,3.38726 1.379997,-0.12545 0.752726,0.62728 -1.630908,-4.3909 -2.383634,-5.01818 -1.087036,-19.87072 1.143228,-21.18028 2.473152,-1.45218 1.599244,-0.47562 -1.27607,-3.59381 -2.101107,-2.2786 -2.258179,-2.80828 -3.889086,-1.67919 -1.630908,1.12909 -1.2178,1.39784 -0.339619,4.15783 0.878181,2.76 1.851376,6.82259 -0.955587,10.45838 -0.89407,1.15806 -11.870122,0.79708 -15.884664,1.04799 -4.014541,0.25091 -13.172715,0 -13.925441,-0.87818 -0.752726,-0.87818 -2.007271,-4.14 -0.878181,-5.64545 1.12909,-1.50545 7.276357,-3.01091 13.172715,-3.38727 5.896358,-0.37636 11.779024,0.0304 14.16266,1.28499 2.383634,1.25454 2.346392,1.57468 2.825876,1.25585 0.704439,-0.46841 0.362449,-0.75904 -0.501819,-3.13636 -0.613721,-1.68814 -0.945365,-4.75467 -0.945365,-4.75467 0,0 -0.198945,-1.25455 -1.453488,-0.50182 -1.254546,0.75273 -12.833321,2.21383 -17.600589,2.8411 -4.767267,0.62728 -1.756361,0.62728 2.383634,-5.64544 4.139996,-6.27273 3.889089,-9.9109 3.889089,-9.9109 z"
       id="path944"
       sodipodi:nodetypes="csssssssssssscsssssssssssssssssssssssssssssssssscsssc" />
    <path
       style="fill:#000000;stroke-width:0;paint-order:markers fill stroke"
       d="m 37.887236,311.62879 c -0.878181,1.00364 0.501817,0.50182 0.627271,6.77453 0.125455,6.27274 0.878182,25.09089 0.376365,26.09453 -0.501819,1.00364 -14.050896,1.37999 -14.803623,0.75271 -0.752726,-0.62724 -1.630907,-13.79997 -1.003635,-14.80362 0.627272,-1.00362 8.907263,-1.88179 10.663626,-0.87818 1.756362,1.00365 1.662271,1.88183 2.226815,1.4741 0.564547,-0.40772 0.815454,-0.40772 0.846817,-2.47771 0.03136,-2.07 0.752727,-3.41863 0.03136,-3.85774 -0.721363,-0.4391 -0.156816,0.0314 -2.164088,1.035 -2.007272,1.00365 -7.025447,1.16046 -8.311355,1.16046 -1.285908,0 -4.422269,-2.35227 -6.178631,-1.63091 -1.756362,0.72136 -1.097726,0.72136 -2.038634,2.16408 -0.940908,1.44274 -0.564545,1.44274 -0.06273,2.63456 0.501817,1.19181 1.22318,7.90363 1.22318,17.06179 0,9.15818 -2.007271,17.56362 -1.630907,19.19454 0.376363,1.63089 1.505453,2.38363 3.13636,3.51271 1.630908,1.12908 0.376364,-0.12546 5.519995,-0.50181 5.143632,-0.37637 29.48179,-0.87818 31.865423,-0.12546 2.383634,0.75274 3.763632,2.38363 5.269088,1.88182 1.505452,-0.50181 2.258179,-1.75636 3.387267,-3.51271 1.129091,-1.75639 0.752729,-0.62728 -0.376362,-3.63818 -1.129091,-3.01091 -1.630908,-10.41273 -1.630908,-17.31272 0,-6.89999 -0.878181,-13.17271 0.25091,-15.30543 1.129088,-2.13273 3.261815,-3.01091 2.132724,-4.76729 -1.129091,-1.75636 -3.261815,-4.6418 -4.892722,-4.26546 -1.630908,0.37637 -5.519994,1.75639 -7.652721,1.75639 -2.132724,0 -7.778173,-1.12911 -8.781809,0 -1.003636,1.12908 -1.881815,4.01452 -0.627272,5.01816 1.254543,1.00365 0.752726,-0.5018 5.143632,-0.5018 4.390904,0 8.781809,-1.12911 9.910898,0.2509 1.12909,1.37999 2.132726,30.86179 0.627274,34.62541 -1.505453,3.76365 -0.376365,1.75636 -2.509089,2.00729 -2.132727,0.2509 -32.492696,1.00362 -33.872695,-0.37637 -1.379999,-1.38001 -1.379999,-12.16909 -0.627272,-13.42364 0.752727,-1.25454 12.88331,-2.54225 14.301804,-1.25454 0.901781,0.81864 -0.376363,8.40546 -0.376363,10.16182 0,1.75636 1.003636,1.63089 2.383634,1.88182 1.379998,0.25091 2.759998,0.87818 3.638179,0.25091 0.878181,-0.62728 -1.003636,-0.25091 -1.129091,-5.14363 -0.125454,-4.89273 -0.878181,-7.02546 -0.125454,-7.52727 0.752726,-0.50183 10.663626,-1.50545 12.921805,-0.87818 2.258182,0.62728 3.13636,2.88544 3.763634,2.13273 0.627272,-0.75274 1.129088,-2.13273 0.125455,-4.89273 -1.003636,-2.76 -3.261815,-3.76364 -4.76727,-3.63818 -1.505453,0.12544 -5.269085,1.50546 -6.774537,1.50546 -1.505453,0 -5.143633,1.25454 -5.519994,0.5018 -0.376365,-0.75271 -0.376365,-10.28726 -0.376365,-14.30181 0,-4.01452 0,-10.4127 0.878181,-12.29452 0.878181,-1.88183 0.376362,-2.88544 -1.254545,-4.64181 -1.630908,-1.75636 -3.763632,-1.88182 -3.763632,-1.88182 z"
       id="path946"
       sodipodi:nodetypes="sssssssssssssssssssssssssssssssssssssssssssssssssscs" />
  </g>
</svg>
